                                    <svg xmlns="http://www.w3.org/2000/svg" width="21" height="20" viewBox="0 0 21 20"
                                         fill="none">
                                        <g clip-path="url(#clip0_35_29)">
                                            <path d="M1.58325 0C1.25173 0 0.933789 0.131696 0.699368 0.366117C0.464948 0.600537 0.333252 0.918479 0.333252 1.25L0.333252 18.75C0.333252 19.0815 0.464948 19.3995 0.699368 19.6339C0.933789 19.8683 1.25173 20 1.58325 20H7.83325V18.75H2.83325V17.5H7.83325V16.25H5.33325V15H7.83325V13.75H2.83325V12.5H7.83325V11.25H5.33325V10H7.83325V8.75H2.83325V7.5H7.83325V2.5H9.08325V7.5H10.3333V5H11.5833V7.5H12.8333V2.5H14.0833V7.5H15.3333V5H16.5833V7.5H17.8333V2.5H19.0833V7.5H20.3333V1.25C20.3333 0.918479 20.2016 0.600537 19.9671 0.366117C19.7327 0.131696 19.4148 0 19.0833 0L1.58325 0Z"
                                                  fill="#444F85"/>
                                        </g>
                                        <defs>
                                            <clipPath id="clip0_35_29">
                                                <rect width="20" height="20" fill="white"
                                                      transform="translate(0.333252)"/>
                                            </clipPath>
                                        </defs>
                                    </svg>