                                    <svg xmlns="http://www.w3.org/2000/svg" width="18" height="25" viewBox="0 0 18 25"
                                         fill="none">
                                        <path d="M17.8333 2.3V23.9C17.8333 24.0591 17.7715 24.2117 17.6616 24.3243C17.5516 24.4368 17.4025 24.5 17.247 24.5C17.0916 24.5 16.9425 24.4368 16.8325 24.3243C16.7226 24.2117 16.6608 24.0591 16.6608 23.9V2.3C16.6608 2.14087 16.5991 1.98826 16.4891 1.87574C16.3792 1.76321 16.2301 1.7 16.0746 1.7H7.28153C7.12606 1.7 6.97695 1.76321 6.86702 1.87574C6.75708 1.98826 6.69532 2.14087 6.69532 2.3V5.9C7.05785 5.9011 7.41116 6.01704 7.70673 6.23191C8.0023 6.44677 8.22564 6.75001 8.34608 7.1H3.87215C3.99259 6.75001 4.21593 6.44677 4.5115 6.23191C4.80707 6.01704 5.16038 5.9011 5.52291 5.9V2.3C5.52337 1.82276 5.70881 1.3652 6.03851 1.02773C6.36821 0.690272 6.81526 0.500477 7.28153 0.5H16.0746C16.5409 0.500477 16.9879 0.690272 17.3176 1.02773C17.6474 1.3652 17.8328 1.82276 17.8333 2.3ZM6.10911 15.5C5.95364 15.5 5.80454 15.5632 5.6946 15.6757C5.58467 15.7883 5.52291 15.9409 5.52291 16.1V18.5C5.52291 18.6591 5.58467 18.8117 5.6946 18.9243C5.80454 19.0368 5.95364 19.1 6.10911 19.1C6.26459 19.1 6.41369 19.0368 6.52363 18.9243C6.63356 18.8117 6.69532 18.6591 6.69532 18.5V16.1C6.69532 15.9409 6.63356 15.7883 6.52363 15.6757C6.41369 15.5632 6.26459 15.5 6.10911 15.5ZM2.59187 16.1C2.4364 16.1 2.2873 16.1632 2.17736 16.2757C2.06743 16.3883 2.00567 16.5409 2.00567 16.7V17.3C2.00567 17.4591 2.06743 17.6117 2.17736 17.7243C2.2873 17.8368 2.4364 17.9 2.59187 17.9C2.74734 17.9 2.89645 17.8368 3.00638 17.7243C3.11632 17.6117 3.17808 17.4591 3.17808 17.3V16.7C3.17808 16.5409 3.11632 16.3883 3.00638 16.2757C2.89645 16.1632 2.74734 16.1 2.59187 16.1ZM8.45394 8.3H3.76429C2.98721 8.30095 2.24223 8.61733 1.69276 9.17973C1.14329 9.74213 0.834183 10.5046 0.833252 11.3V13.7C0.833252 13.8591 0.895013 14.0117 1.00495 14.1243C1.11488 14.2368 1.26399 14.3 1.41946 14.3H10.7988C10.9542 14.3 11.1033 14.2368 11.2133 14.1243C11.3232 14.0117 11.385 13.8591 11.385 13.7V11.3C11.384 10.5046 11.0749 9.74213 10.5255 9.17973C9.976 8.61733 9.23102 8.30095 8.45394 8.3ZM2.59187 19.1C2.4364 19.1 2.2873 19.1632 2.17736 19.2757C2.06743 19.3883 2.00567 19.5409 2.00567 19.7V20.9C2.00567 21.0591 2.06743 21.2117 2.17736 21.3243C2.2873 21.4368 2.4364 21.5 2.59187 21.5C2.74734 21.5 2.89645 21.4368 3.00638 21.3243C3.11632 21.2117 3.17808 21.0591 3.17808 20.9V19.7C3.17808 19.5409 3.11632 19.3883 3.00638 19.2757C2.89645 19.1632 2.74734 19.1 2.59187 19.1ZM9.62636 15.5C9.47088 15.5 9.32178 15.5632 9.21184 15.6757C9.10191 15.7883 9.04015 15.9409 9.04015 16.1V17.3C9.04015 17.4591 9.10191 17.6117 9.21184 17.7243C9.32178 17.8368 9.47088 17.9 9.62636 17.9C9.78183 17.9 9.93093 17.8368 10.0409 17.7243C10.1508 17.6117 10.2126 17.4591 10.2126 17.3V16.1C10.2126 15.9409 10.1508 15.7883 10.0409 15.6757C9.93093 15.5632 9.78183 15.5 9.62636 15.5ZM9.62636 19.1C9.47088 19.1 9.32178 19.1632 9.21184 19.2757C9.10191 19.3883 9.04015 19.5409 9.04015 19.7V20.9C9.04015 21.0591 9.10191 21.2117 9.21184 21.3243C9.32178 21.4368 9.47088 21.5 9.62636 21.5C9.78183 21.5 9.93093 21.4368 10.0409 21.3243C10.1508 21.2117 10.2126 21.0591 10.2126 20.9V19.7C10.2126 19.5409 10.1508 19.3883 10.0409 19.2757C9.93093 19.1632 9.78183 19.1 9.62636 19.1ZM6.10911 20.3C5.95364 20.3 5.80454 20.3632 5.6946 20.4757C5.58467 20.5883 5.52291 20.7409 5.52291 20.9V22.1C5.52291 22.2591 5.58467 22.4117 5.6946 22.5243C5.80454 22.6368 5.95364 22.7 6.10911 22.7C6.26459 22.7 6.41369 22.6368 6.52363 22.5243C6.63356 22.4117 6.69532 22.2591 6.69532 22.1V20.9C6.69532 20.7409 6.63356 20.5883 6.52363 20.4757C6.41369 20.3632 6.26459 20.3 6.10911 20.3Z"
                                              fill="#444F85"/>
                                    </svg>