                                    <svg xmlns="http://www.w3.org/2000/svg" width="23" height="21" viewBox="0 0 23 21"
                                         fill="none">
                                        <path d="M20.4665 10.5V1.61111C20.4665 1.31643 20.3506 1.03381 20.1443 0.825437C19.938 0.617063 19.6582 0.5 19.3665 0.5C19.0748 0.5 18.795 0.617063 18.5887 0.825437C18.3824 1.03381 18.2665 1.31643 18.2665 1.61111V3.83333H5.0665V1.61111C5.0665 1.31643 4.95061 1.03381 4.74432 0.825437C4.53803 0.617063 4.25824 0.5 3.9665 0.5C3.67477 0.5 3.39498 0.617063 3.18869 0.825437C2.9824 1.03381 2.8665 1.31643 2.8665 1.61111V10.5C2.28303 10.5 1.72345 10.7341 1.31087 11.1509C0.898289 11.5676 0.666504 12.1329 0.666504 12.7222V19.3889C0.666504 19.6836 0.782396 19.9662 0.988686 20.1746C1.19498 20.3829 1.47477 20.5 1.7665 20.5C2.05824 20.5 2.33803 20.3829 2.54432 20.1746C2.75061 19.9662 2.8665 19.6836 2.8665 19.3889V17.1667H20.4665V19.3889C20.4665 19.6836 20.5824 19.9662 20.7887 20.1746C20.995 20.3829 21.2748 20.5 21.5665 20.5C21.8582 20.5 22.138 20.3829 22.3443 20.1746C22.5506 19.9662 22.6665 19.6836 22.6665 19.3889V12.7222C22.6665 12.1329 22.4347 11.5676 22.0221 11.1509C21.6096 10.7341 21.05 10.5 20.4665 10.5ZM10.5665 10.5H5.0665V9.38889C5.0665 9.0942 5.1824 8.81159 5.38869 8.60322C5.59498 8.39484 5.87477 8.27778 6.1665 8.27778H9.4665C9.75824 8.27778 10.038 8.39484 10.2443 8.60322C10.4506 8.81159 10.5665 9.0942 10.5665 9.38889V10.5ZM18.2665 10.5H12.7665V9.38889C12.7665 9.0942 12.8824 8.81159 13.0887 8.60322C13.295 8.39484 13.5748 8.27778 13.8665 8.27778H17.1665C17.4582 8.27778 17.738 8.39484 17.9443 8.60322C18.1506 8.81159 18.2665 9.0942 18.2665 9.38889V10.5Z"
                                              fill="#444F85"/>
                                    </svg>