<svg width="40" height="53" viewBox="0 0 40 53" fill="none" xmlns="http://www.w3.org/2000/svg">
<path fill-rule="evenodd" clip-rule="evenodd" d="M4.46229e-07 51.3426V6.62485C4.46229e-07 4.86783 0.702379 3.18277 1.95262 1.94037C3.20286 0.697973 4.89856 0 6.66667 0L33.3333 0C35.1014 0 36.7971 0.697973 38.0474 1.94037C39.2976 3.18277 40 4.86783 40 6.62485V51.3426C40.0002 51.6302 39.9251 51.9129 39.7819 52.1629C39.6388 52.4128 39.4326 52.6215 39.1837 52.7682C38.9348 52.915 38.6517 52.9948 38.3623 52.9998C38.0729 53.0048 37.7872 52.9348 37.5333 52.7967L20 43.2901L2.46667 52.7967C2.21277 52.9348 1.92706 53.0048 1.63768 52.9998C1.3483 52.9948 1.06522 52.915 0.816306 52.7682C0.567389 52.6215 0.361215 52.4128 0.218082 52.1629C0.0749484 51.9129 -0.000211313 51.6302 4.46229e-07 51.3426Z" fill="#2162D0"/>
</svg>
