<svg width="40" height="53" viewBox="0 0 40 53" fill="none" xmlns="http://www.w3.org/2000/svg">
<path fill-rule="evenodd" clip-rule="evenodd" d="M4.46229e-07 51.3426V6.62485C4.46229e-07 4.86783 0.702379 3.18277 1.95262 1.94037C3.20286 0.697973 4.89856 0 6.66667 0L33.3333 0C35.1014 0 36.7971 0.697973 38.0474 1.94037C39.2976 3.18277 40 4.86783 40 6.62485V51.3426C40.0002 51.6302 39.925 51.9129 39.7819 52.1629C39.6388 52.4128 39.4326 52.6215 39.1837 52.7682C38.9348 52.9149 38.6517 52.9947 38.3623 52.9997C38.0729 53.0047 37.7872 52.9348 37.5333 52.7967L20 43.2901L2.46667 52.7967C2.21277 52.9348 1.92706 53.0047 1.63768 52.9997C1.3483 52.9947 1.06522 52.9149 0.816306 52.7682C0.567389 52.6215 0.361215 52.4128 0.218082 52.1629C0.0749484 51.9129 -0.000211313 51.6302 4.46229e-07 51.3426ZM21.6667 14.9059C21.6667 14.4667 21.4911 14.0454 21.1785 13.7348C20.866 13.4242 20.442 13.2497 20 13.2497C19.558 13.2497 19.134 13.4242 18.8215 13.7348C18.5089 14.0454 18.3333 14.4667 18.3333 14.9059V19.8745H13.3333C12.8913 19.8745 12.4674 20.049 12.1548 20.3596C11.8423 20.6702 11.6667 21.0915 11.6667 21.5308C11.6667 21.97 11.8423 22.3913 12.1548 22.7019C12.4674 23.0125 12.8913 23.187 13.3333 23.187H18.3333V28.1556C18.3333 28.5949 18.5089 29.0161 18.8215 29.3267C19.134 29.6373 19.558 29.8118 20 29.8118C20.442 29.8118 20.866 29.6373 21.1785 29.3267C21.4911 29.0161 21.6667 28.5949 21.6667 28.1556V23.187H26.6667C27.1087 23.187 27.5326 23.0125 27.8452 22.7019C28.1577 22.3913 28.3333 21.97 28.3333 21.5308C28.3333 21.0915 28.1577 20.6702 27.8452 20.3596C27.5326 20.049 27.1087 19.8745 26.6667 19.8745H21.6667V14.9059Z" fill="#2162D0"/>
</svg>
