<svg xmlns="http://www.w3.org/2000/svg" width="25" height="25" viewBox="0 0 25 25"
     fill="none">
    <path d="M22.8781 6.67428V7.71594C22.8781 7.99221 22.7684 8.25716 22.573 8.45251C22.3777 8.64786 22.1127 8.75761 21.8364 8.75761H17.1489C17.0108 8.75761 16.8783 8.81248 16.7807 8.91016C16.683 9.00783 16.6281 9.14031 16.6281 9.27844V11.4332C16.6281 11.5981 16.5793 11.7592 16.4877 11.8963C16.3961 12.0334 16.266 12.1402 16.1137 12.2033C15.9614 12.2664 15.7938 12.2829 15.6321 12.2507C15.4704 12.2185 15.3219 12.1391 15.2054 12.0225L10.9673 7.78438C10.8899 7.707 10.8285 7.61513 10.7866 7.51402C10.7447 7.41292 10.7232 7.30455 10.7232 7.19511C10.7232 7.08567 10.7447 6.97731 10.7866 6.8762C10.8285 6.77509 10.8899 6.68322 10.9673 6.60584L15.2054 2.36761C15.3219 2.25102 15.4705 2.17161 15.6321 2.13944C15.7938 2.10726 15.9614 2.12377 16.1137 2.18686C16.266 2.24995 16.3962 2.3568 16.4877 2.49389C16.5793 2.63097 16.6282 2.79213 16.6281 2.95699V5.11178C16.6281 5.24991 16.683 5.38239 16.7807 5.48006C16.8783 5.57774 17.0108 5.63261 17.1489 5.63261H21.8364C22.1127 5.63261 22.3777 5.74236 22.573 5.93771C22.7684 6.13306 22.8781 6.39801 22.8781 6.67428ZM9.79478 12.9775C9.67824 12.8609 9.52974 12.7815 9.36807 12.7493C9.2064 12.7172 9.03881 12.7337 8.88652 12.7967C8.73422 12.8598 8.60405 12.9666 8.51248 13.1037C8.42091 13.2408 8.37204 13.4019 8.37207 13.5668V15.7216C8.37207 15.8597 8.3172 15.9922 8.21952 16.0899C8.12185 16.1875 7.98937 16.2424 7.85124 16.2424H3.16374C2.88747 16.2424 2.62252 16.3521 2.42717 16.5475C2.23182 16.7428 2.12207 17.0078 2.12207 17.2841V18.3257C2.12207 18.602 2.23182 18.867 2.42717 19.0623C2.62252 19.2577 2.88747 19.3674 3.16374 19.3674H7.85124C7.98937 19.3674 8.12185 19.4223 8.21952 19.5199C8.3172 19.6176 8.37207 19.7501 8.37207 19.8882V22.043C8.37202 22.2079 8.42087 22.369 8.51244 22.5061C8.604 22.6432 8.73417 22.7501 8.88647 22.8132C9.03877 22.8762 9.20636 22.8927 9.36805 22.8606C9.52973 22.8284 9.67823 22.749 9.79478 22.6324L14.0329 18.3942C14.1103 18.3168 14.1717 18.2249 14.2136 18.1238C14.2554 18.0227 14.277 17.9143 14.277 17.8049C14.277 17.6955 14.2554 17.5871 14.2136 17.486C14.1717 17.3849 14.1103 17.293 14.0329 17.2156L9.79478 12.9775Z"
          fill="#FAF9F6"/>
</svg>