                                    <svg xmlns="http://www.w3.org/2000/svg" width="20" height="19" viewBox="0 0 20 19"
                                         fill="none">
                                        <path d="M17.6889 1.63625C17.575 1.30441 17.3619 1.01671 17.0792 0.813093C16.7964 0.609476 16.4581 0.500047 16.1111 0.5H3.88889C3.16111 0.5 2.53889 0.9725 2.31111 1.63625L0 8.375V17.375C0 17.9937 0.5 18.5 1.11111 18.5H2.22222C2.51691 18.5 2.79952 18.3815 3.0079 18.1705C3.21627 17.9595 3.33333 17.6734 3.33333 17.375V16.25H16.6667V17.375C16.6667 17.9937 17.1667 18.5 17.7778 18.5H18.8889C19.1836 18.5 19.4662 18.3815 19.6746 18.1705C19.8829 17.9595 20 17.6734 20 17.375V8.375L17.6889 1.63625ZM3.88889 12.875C2.96667 12.875 2.22222 12.1213 2.22222 11.1875C2.22222 10.2537 2.96667 9.5 3.88889 9.5C4.81111 9.5 5.55556 10.2537 5.55556 11.1875C5.55556 12.1213 4.81111 12.875 3.88889 12.875ZM16.1111 12.875C15.1889 12.875 14.4444 12.1213 14.4444 11.1875C14.4444 10.2537 15.1889 9.5 16.1111 9.5C17.0333 9.5 17.7778 10.2537 17.7778 11.1875C17.7778 12.1213 17.0333 12.875 16.1111 12.875ZM2.22222 7.25L3.88889 2.1875H16.1111L17.7778 7.25H2.22222Z"
                                              fill="#444F85"/>
                                    </svg>