<svg xmlns="http://www.w3.org/2000/svg" width="20" height="20"
     viewBox="0 0 20 20" fill="none">
    <g clip-path="url(#clip0_35_93)">
        <path d="M20 10C20 4.47715 15.5228 0 10 0C4.47715 0 0 4.47715 0 10C0 15.5228 4.47715 20 10 20C15.5228 20 20 15.5228 20 10Z"
              fill="#00B900"/>
        <path fill-rule="evenodd" clip-rule="evenodd"
              d="M16.6666 9.50064C16.6666 6.51752 13.676 4.09058 9.99984 4.09058C6.32417 4.09058 3.33325 6.51752 3.33325 9.50064C3.33325 12.175 5.70496 14.4147 8.90871 14.8382C9.12583 14.885 9.42129 14.9814 9.49604 15.1669C9.56329 15.3355 9.54004 15.5996 9.51754 15.7698C9.51754 15.7698 9.43933 16.2402 9.42246 16.3404L9.41988 16.3553C9.38821 16.5357 9.30838 16.9912 9.99984 16.6998C10.7115 16.4 13.8393 14.4391 15.2379 12.8292C16.2041 11.7697 16.6666 10.6946 16.6666 9.50064ZM8.64538 8.0591H8.17775C8.10604 8.0591 8.04775 8.11723 8.04775 8.18868V11.0936C8.04775 11.1651 8.10604 11.2232 8.17775 11.2232H8.64538C8.71704 11.2232 8.77521 11.1651 8.77521 11.0936V8.18868C8.77521 8.11723 8.71704 8.0591 8.64538 8.0591ZM11.3964 8.0591H11.864C11.9358 8.0591 11.9939 8.11723 11.9939 8.18868V11.0936C11.9939 11.1651 11.9358 11.2232 11.864 11.2232H11.3964C11.3849 11.2232 11.3738 11.2215 11.3632 11.2187C11.3625 11.2186 11.3619 11.2183 11.3613 11.2183L11.3559 11.2166L11.3524 11.2154C11.3512 11.215 11.3499 11.2145 11.3486 11.214L11.3448 11.2124L11.3422 11.2113C11.3402 11.2104 11.338 11.2094 11.3361 11.2082L11.3336 11.207L11.3324 11.2063C11.3297 11.2048 11.327 11.2031 11.3243 11.2014L11.3238 11.201L11.323 11.2004C11.3106 11.192 11.2993 11.1814 11.2901 11.1684L9.95725 9.36827V11.0936C9.95725 11.1651 9.89909 11.2232 9.82725 11.2232H9.35975C9.28808 11.2232 9.22979 11.1651 9.22979 11.0936V8.18868C9.22979 8.11723 9.28808 8.0591 9.35975 8.0591H9.82725L9.82954 8.05923L9.83188 8.05935L9.83404 8.05943C9.83554 8.05948 9.83704 8.05956 9.8385 8.05973L9.84217 8.0601C9.84325 8.06023 9.84434 8.06039 9.84542 8.0606C9.84721 8.06073 9.84913 8.06102 9.85092 8.06127L9.85417 8.06198L9.85834 8.06293L9.86046 8.06352L9.86279 8.06418C9.86546 8.06485 9.86804 8.06573 9.87058 8.06664L9.87479 8.06814C9.87738 8.06906 9.87979 8.07018 9.88221 8.07135L9.88313 8.07173L9.88475 8.07252L9.88629 8.07327C9.88859 8.07443 9.89092 8.07581 9.89321 8.07723C9.89463 8.07785 9.89588 8.07864 9.89717 8.07952C9.89859 8.08039 9.89996 8.08135 9.90133 8.08231L9.90396 8.08414L9.90488 8.08485L9.90554 8.08535C9.90613 8.08581 9.90671 8.08627 9.90725 8.08681C9.90971 8.0886 9.912 8.09052 9.91417 8.09256C9.91504 8.09335 9.91583 8.09398 9.91658 8.09473C9.91929 8.09731 9.92184 8.09985 9.92438 8.10281L9.92529 8.10356C9.92888 8.10777 9.93229 8.1121 9.93538 8.11673L11.2665 9.91448V8.18868C11.2665 8.11723 11.3247 8.0591 11.3964 8.0591ZM7.51817 10.4958H6.24754V8.18885C6.24754 8.11718 6.18942 8.05902 6.11784 8.05902H5.65009C5.57838 8.05902 5.52025 8.11718 5.52025 8.18885V11.0933C5.52025 11.1281 5.53417 11.16 5.55654 11.1832C5.55704 11.1839 5.55754 11.1845 5.55834 11.1851L5.56025 11.1869C5.58363 11.2094 5.61509 11.2232 5.64996 11.2232H7.51817C7.58984 11.2232 7.64775 11.165 7.64775 11.0933V10.6256C7.64775 10.5539 7.58984 10.4958 7.51817 10.4958ZM14.576 8.6566C14.576 8.72843 14.5181 8.78643 14.4464 8.78643H13.1759V9.27735H14.4464C14.5181 9.27735 14.576 9.3356 14.576 9.40731V9.87493C14.576 9.94664 14.5181 10.0048 14.4464 10.0048H13.1759V10.4958H14.4464C14.5181 10.4958 14.576 10.5541 14.576 10.6256V11.0934C14.576 11.1649 14.5181 11.2232 14.4464 11.2232H12.5783C12.5436 11.2232 12.5118 11.2093 12.4885 11.1869C12.4878 11.1864 12.4871 11.1858 12.4866 11.1851C12.4859 11.1846 12.4853 11.1839 12.4848 11.1832C12.4624 11.16 12.4485 11.1284 12.4485 11.0935V8.18898C12.4485 8.15423 12.4623 8.12264 12.4845 8.09939C12.4852 8.09864 12.4858 8.09785 12.4866 8.0971C12.487 8.0966 12.4876 8.09618 12.4881 8.09568C12.5115 8.07306 12.543 8.05902 12.5781 8.05902H14.4464C14.5181 8.05902 14.576 8.11727 14.576 8.18898V8.6566Z"
              fill="white"/>
    </g>
    <defs>
        <clipPath id="clip0_35_93">
            <rect width="20" height="20" fill="white"/>
        </clipPath>
    </defs>
</svg>