                                <svg xmlns="http://www.w3.org/2000/svg" width="13" height="14" viewBox="0 0 13 14"
                                     fill="none">
                                    <g clip-path="url(#clip0_35_196)">
                                        <path fill-rule="evenodd" clip-rule="evenodd"
                                              d="M2.51875 9.8C2.55659 9.74566 2.60566 9.70156 2.66207 9.67119C2.71848 9.64081 2.78068 9.625 2.84375 9.625H4.875C4.98274 9.625 5.08608 9.67109 5.16226 9.75314C5.23845 9.83519 5.28125 9.94647 5.28125 10.0625C5.28125 10.1785 5.23845 10.2898 5.16226 10.3719C5.08608 10.4539 4.98274 10.5 4.875 10.5H3.04688L1.21875 13.125H11.7812L9.95312 10.5H8.125C8.01726 10.5 7.91392 10.4539 7.83774 10.3719C7.76155 10.2898 7.71875 10.1785 7.71875 10.0625C7.71875 9.94647 7.76155 9.83519 7.83774 9.75314C7.91392 9.67109 8.01726 9.625 8.125 9.625H10.1562C10.2193 9.625 10.2815 9.64081 10.3379 9.67119C10.3943 9.70156 10.4434 9.74566 10.4812 9.8L12.9187 13.3C12.964 13.365 12.9916 13.4423 12.9984 13.5232C13.0051 13.6041 12.9909 13.6855 12.9571 13.7582C12.9234 13.8308 12.8715 13.8919 12.8073 13.9347C12.7432 13.9774 12.6692 14 12.5938 14H0.40625C0.330805 14 0.25685 13.9774 0.192672 13.9347C0.128494 13.8919 0.0766294 13.8308 0.0428891 13.7582C0.00914891 13.6855 -0.00513371 13.6041 0.00164172 13.5232C0.00841715 13.4423 0.0359829 13.365 0.0812502 13.3L2.51875 9.8Z"
                                              fill="#FAF9F6"/>
                                        <path fill-rule="evenodd" clip-rule="evenodd"
                                              d="M3.25 3.49998C3.25006 2.82643 3.43058 2.1672 3.76991 1.6014C4.10924 1.0356 4.59297 0.587256 5.16303 0.310174C5.7331 0.0330922 6.3653 -0.0609609 6.98378 0.0393004C7.60225 0.139562 8.18073 0.429879 8.64979 0.875415C9.11885 1.32095 9.45857 1.90278 9.6282 2.55109C9.79782 3.1994 9.79013 3.88665 9.60607 4.53037C9.422 5.17409 9.06936 5.74694 8.59047 6.18019C8.11158 6.61343 7.52679 6.88866 6.90625 6.97286V11.8125C6.90625 11.9285 6.86345 12.0398 6.78726 12.1218C6.71108 12.2039 6.60774 12.25 6.5 12.25C6.39226 12.25 6.28893 12.2039 6.21274 12.1218C6.13655 12.0398 6.09375 11.9285 6.09375 11.8125V6.97373C5.30803 6.86713 4.5855 6.45524 4.06186 5.81544C3.53823 5.17564 3.24953 4.35283 3.25 3.49998Z"
                                              fill="#FAF9F6"/>
                                    </g>
                                    <defs>
                                        <clipPath id="clip0_35_196">
                                            <rect width="13" height="14" fill="white"/>
                                        </clipPath>
                                    </defs>
                                </svg>