<svg xmlns="http://www.w3.org/2000/svg" width="21" height="16"
     viewBox="0 0 21 16" fill="none">
    <path d="M10.7276 10.3671L1.05908 4.21416C0.559228 3.8836 0.209191 3.36996 0.0843421 2.78384C-0.0405064 2.19772 0.0698214 1.58602 0.391567 1.08045C0.713314 0.574876 1.22074 0.215886 1.80458 0.0807783C2.38842 -0.0543289 3.00196 0.045255 3.5131 0.358086L10.6064 4.87184L16.9753 0.413553C17.4722 0.0768352 18.0816 -0.0509125 18.6719 0.0579014C19.2622 0.166715 19.786 0.503357 20.1301 0.995117C20.4743 1.48688 20.6112 2.09429 20.5113 2.68615C20.4114 3.27802 20.0827 3.80684 19.5962 4.15839L10.7276 10.3671Z"
          fill="#EA4435"/>
    <path d="M19.0477 16H16.0001V2.28571C16.0001 1.67951 16.2409 1.09812 16.6696 0.66947C17.0982 0.240815 17.6796 0 18.2858 0C18.892 0 19.4734 0.240815 19.9021 0.66947C20.3307 1.09812 20.5715 1.67951 20.5715 2.28571V14.4762C20.5715 14.8803 20.411 15.2679 20.1252 15.5537C19.8394 15.8395 19.4519 16 19.0477 16Z"
          fill="#00AC47"/>
    <path d="M20.5379 1.95472C20.5312 1.909 20.5317 1.8623 20.5222 1.81666C20.5076 1.74672 20.4804 1.68211 20.4595 1.6146C20.4392 1.53734 20.4149 1.46122 20.3865 1.38656C20.3713 1.35037 20.3478 1.3186 20.3305 1.2834C20.2831 1.18184 20.2282 1.08392 20.1664 0.990449C20.1359 0.946182 20.0978 0.908468 20.0641 0.866563C20.0063 0.790402 19.9439 0.717907 19.8771 0.649496C19.8264 0.600201 19.7687 0.558982 19.7136 0.514563C19.655 0.464366 19.594 0.417145 19.5307 0.373077C19.4703 0.33361 19.4042 0.30321 19.3402 0.269534C19.2729 0.23441 19.2069 0.196163 19.1368 0.168125C19.0691 0.140849 18.9969 0.123477 18.9261 0.102677C18.8553 0.0818772 18.7849 0.0569628 18.7122 0.0434771C18.6222 0.0290119 18.5313 0.0198534 18.4402 0.0160487C18.3824 0.0120106 18.3251 0.00187716 18.267 0.00233431C18.1592 0.00547559 18.0518 0.0162967 17.9456 0.0347153C17.9027 0.0411153 17.8595 0.0405819 17.8169 0.04942C17.6731 0.0933479 17.5298 0.138556 17.3868 0.185039C17.3476 0.201801 17.3132 0.226715 17.2752 0.245611C16.8883 0.42615 16.5619 0.714885 16.3356 1.07692C16.1093 1.43895 15.9927 1.85879 15.9998 2.28569V6.67578L19.596 4.15822C19.9492 3.92121 20.2261 3.58693 20.3932 3.19584C20.5603 2.80474 20.6107 2.37374 20.5379 1.95472Z"
          fill="#FFBA00"/>
    <path d="M2.28571 0C2.89192 0 3.4733 0.240816 3.90196 0.66947C4.33061 1.09812 4.57143 1.67951 4.57143 2.28571V16H1.52381C1.11967 16 0.732083 15.8395 0.446313 15.5537C0.160544 15.2679 0 14.8803 0 14.4762V2.28571C0 1.67951 0.240816 1.09812 0.66947 0.66947C1.09812 0.240816 1.67951 0 2.28571 0Z"
          fill="#4285F4"/>
    <path d="M0.0336018 1.95476C0.0403065 1.90905 0.0397733 1.86234 0.0492971 1.8167C0.0639257 1.74676 0.0911256 1.68215 0.112002 1.61465C0.132239 1.53741 0.156605 1.46131 0.184992 1.38668C0.20023 1.35049 0.223697 1.31872 0.241068 1.28352C0.288444 1.18192 0.343299 1.08397 0.405183 0.990494C0.435659 0.946227 0.473754 0.908513 0.50743 0.866608C0.565196 0.790448 0.62764 0.717953 0.694402 0.649541C0.745068 0.600246 0.802821 0.559027 0.857983 0.514608C0.91651 0.464392 0.97754 0.41717 1.04084 0.373122C1.10126 0.333655 1.16739 0.303255 1.23132 0.269579C1.29738 0.232214 1.36527 0.19819 1.43474 0.167636C1.50255 0.14036 1.57478 0.122989 1.64549 0.102189C1.71619 0.0813889 1.78667 0.0564745 1.85935 0.0429888C1.94941 0.0285274 2.04023 0.019369 2.13135 0.0155604C2.18926 0.0115223 2.24648 0.00138888 2.30454 0.00184603C2.41232 0.00498344 2.51974 0.0158046 2.62598 0.034227C2.66888 0.040627 2.71208 0.0400936 2.75474 0.0489317C2.82849 0.0677235 2.90123 0.0903059 2.97265 0.116589C3.04447 0.135679 3.11529 0.158362 3.18484 0.184551C3.224 0.201313 3.25836 0.226227 3.29646 0.245122C3.39522 0.291522 3.4905 0.344995 3.58156 0.405122C3.88681 0.614714 4.13645 0.895454 4.30894 1.2231C4.48142 1.55075 4.57157 1.91546 4.57158 2.28573V6.67583L0.975392 4.15842C0.622308 3.92134 0.345462 3.58706 0.178326 3.19599C0.0111908 2.80491 -0.0390766 2.3738 0.0336018 1.95476Z"
          fill="#C52528"/>
</svg>