                                                <svg xmlns="http://www.w3.org/2000/svg" width="21" height="22"
                                                     viewBox="0 0 21 22" fill="none">
                                                    <g clip-path="url(#clip0_37_771)">
                                                        <path d="M18.5312 10.325V19.2522L15.7257 18.7329L14.4888 17.2492L9.27734 11.4556L13.7019 8.31177C15.9183 11.2372 15.9882 10.5241 15.9882 10.5241C15.9882 10.5241 17.083 8.8896 18.4875 10.2941L18.5312 10.325Z"
                                                              fill="#CCCCCC"/>
                                                        <path d="M7.82186 9.65076L17.0221 21.4918C16.9681 21.4972 16.9139 21.4999 16.8597 21.5H1.81836L7.82186 9.65076Z"
                                                              fill="#518EF8"/>
                                                        <path d="M13.702 8.31175L0.0183105 19.8285V4.65853C0.0183105 3.73519 0.76701 2.98706 1.68978 2.98706H11.6684C11.2399 3.72354 12.8287 4.19624 12.8287 5.1097C12.8287 6.02903 13.2683 7.57179 13.702 8.31175Z"
                                                              fill="#28B446"/>
                                                        <path d="M18.5313 19.2522V19.8285C18.5313 20.6966 17.8694 21.4103 17.0223 21.4918L9.32349 13.8943L11.1871 12.0057L15.4883 16.2499L15.7258 16.4845L18.5313 19.2522Z"
                                                              fill="#F2F2F2"/>
                                                        <path d="M13.2281 9.93722L11.1869 12.0057L9.32336 13.8943L1.81845 21.5H1.68978C0.76701 21.5 0.0183105 20.7513 0.0183105 19.8286L11.6772 8.01367C11.8955 8.38745 13.397 8.009 13.702 8.31173L14.2627 9.03246C14.5363 9.3242 12.9929 9.62751 13.2281 9.93722Z"
                                                              fill="#FFD837"/>
                                                        <path d="M4.3847 9.84229C2.91602 9.84229 1.72119 8.64746 1.72119 7.17877C1.72119 5.71008 2.91602 4.51526 4.3847 4.51526C5.09567 4.51526 5.76435 4.79244 6.26773 5.29579L5.65016 5.91324C5.31186 5.57486 4.86241 5.38852 4.3847 5.38852C3.39754 5.38852 2.5945 6.19161 2.5945 7.17873C2.5945 8.16585 3.39758 8.96894 4.3847 8.96894C5.22126 8.96894 5.9257 8.39218 6.12106 7.61534H4.3847V6.74208H7.04822V7.17873C7.04818 8.64746 5.85339 9.84229 4.3847 9.84229Z"
                                                              fill="#575B6F"/>
                                                        <path d="M11.6685 2.98711C12.533 1.50021 14.1439 0.5 15.9883 0.5C18.7461 0.5 20.9817 2.7356 20.9817 5.49341C20.9817 6.18505 20.8408 6.84348 20.587 7.44255C20.3342 8.03706 19.9686 8.57698 19.5105 9.03248C19.1321 9.43476 18.7927 9.85977 18.4876 10.2941C16.489 13.1415 15.9883 16.3925 15.9883 16.3925C15.9883 16.3925 15.4445 12.8627 13.2281 9.9372C12.9929 9.62749 12.7391 9.32414 12.4655 9.03248H12.4661C12.1599 8.72863 11.8947 8.38613 11.6772 8.01365C11.2435 7.27369 10.9949 6.41265 10.9949 5.49337C10.9949 4.57995 11.24 3.72354 11.6685 2.98711Z"
                                                              fill="#F14336"/>
                                                        <path d="M15.9883 2.83569C17.4559 2.83569 18.6453 4.02584 18.6453 5.49342C18.6453 6.961 17.4559 8.15046 15.9883 8.15046C14.5207 8.15046 13.3306 6.961 13.3306 5.49342C13.3306 4.02584 14.5208 2.83569 15.9883 2.83569Z"
                                                              fill="#7E2D25"/>
                                                    </g>
                                                    <defs>
                                                        <clipPath id="clip0_37_771">
                                                            <rect width="21" height="21" fill="white"
                                                                  transform="translate(0 0.5)"/>
                                                        </clipPath>
                                                    </defs>
                                                </svg>