                                    <svg xmlns="http://www.w3.org/2000/svg" width="19" height="19" viewBox="0 0 19 19"
                                         fill="none">
                                        <g clip-path="url(#clip0_35_70)">
                                            <path d="M4.66675 1.0625C4.66675 0.913316 4.60748 0.770242 4.502 0.664752C4.39651 0.559263 4.25343 0.5 4.10425 0.5C3.95506 0.5 3.81199 0.559263 3.7065 0.664752C3.60101 0.770242 3.54175 0.913316 3.54175 1.0625V1.625H2.41675C1.82001 1.625 1.24771 1.86205 0.825758 2.28401C0.403801 2.70597 0.166748 3.27826 0.166748 3.875L0.166748 16.25C0.166748 16.8467 0.403801 17.419 0.825758 17.841C1.24771 18.2629 1.82001 18.5 2.41675 18.5H15.9167C16.5135 18.5 17.0858 18.2629 17.5077 17.841C17.9297 17.419 18.1667 16.8467 18.1667 16.25V3.875C18.1667 3.27826 17.9297 2.70597 17.5077 2.28401C17.0858 1.86205 16.5135 1.625 15.9167 1.625H14.7917V1.0625C14.7917 0.913316 14.7325 0.770242 14.627 0.664752C14.5215 0.559263 14.3784 0.5 14.2292 0.5C14.0801 0.5 13.937 0.559263 13.8315 0.664752C13.726 0.770242 13.6667 0.913316 13.6667 1.0625V1.625H4.66675V1.0625ZM3.02987 3.875H15.3036C15.6411 3.875 15.9167 4.127 15.9167 4.4375V5.5625C15.9167 5.873 15.6422 6.125 15.3025 6.125H3.02987C2.69237 6.125 2.41675 5.873 2.41675 5.5625V4.4375C2.41675 4.127 2.69125 3.875 3.02987 3.875Z"
                                                  fill="#444F85"/>
                                        </g>
                                        <defs>
                                            <clipPath id="clip0_35_70">
                                                <rect width="18" height="18" fill="white"
                                                      transform="translate(0.166748 0.5)"/>
                                            </clipPath>
                                        </defs>
                                    </svg>