<svg width="26" height="26" viewBox="0 0 26 26" fill="none" xmlns="http://www.w3.org/2000/svg">
                    <path d="M0.8125 16.0875C1.02799 16.0875 1.23465 16.1731 1.38702 16.3255C1.5394 16.4779 1.625 16.6845 1.625 16.9V20.9625C1.625 21.3935 1.7962 21.8068 2.10095 22.1116C2.4057 22.4163 2.81902 22.5875 3.25 22.5875H22.75C23.181 22.5875 23.5943 22.4163 23.899 22.1116C24.2038 21.8068 24.375 21.3935 24.375 20.9625V16.9C24.375 16.6845 24.4606 16.4779 24.613 16.3255C24.7653 16.1731 24.972 16.0875 25.1875 16.0875C25.403 16.0875 25.6097 16.1731 25.762 16.3255C25.9144 16.4779 26 16.6845 26 16.9V20.9625C26 21.8245 25.6576 22.6511 25.0481 23.2606C24.4386 23.8701 23.612 24.2125 22.75 24.2125H3.25C2.38805 24.2125 1.5614 23.8701 0.951903 23.2606C0.34241 22.6511 0 21.8245 0 20.9625V16.9C0 16.6845 0.0856024 16.4779 0.237976 16.3255C0.390349 16.1731 0.597012 16.0875 0.8125 16.0875Z" fill="#575B6F"/>
                    <path d="M12.4247 19.2628C12.5002 19.3384 12.5899 19.3984 12.6886 19.4394C12.7873 19.4804 12.8931 19.5015 13 19.5015C13.1069 19.5015 13.2127 19.4804 13.3114 19.4394C13.4101 19.3984 13.4998 19.3384 13.5752 19.2628L18.4502 14.3878C18.6028 14.2352 18.6885 14.0283 18.6885 13.8125C18.6885 13.5967 18.6028 13.3898 18.4502 13.2372C18.2977 13.0847 18.0907 12.999 17.875 12.999C17.6592 12.999 17.4523 13.0847 17.2997 13.2372L13.8125 16.7261V2.4375C13.8125 2.22201 13.7269 2.01535 13.5745 1.86298C13.4221 1.7106 13.2155 1.625 13 1.625C12.7845 1.625 12.5778 1.7106 12.4255 1.86298C12.2731 2.01535 12.1875 2.22201 12.1875 2.4375V16.7261L8.70024 13.2372C8.54767 13.0847 8.34075 12.999 8.12499 12.999C7.90923 12.999 7.7023 13.0847 7.54974 13.2372C7.39717 13.3898 7.31146 13.5967 7.31146 13.8125C7.31146 14.0283 7.39717 14.2352 7.54974 14.3878L12.4247 19.2628Z" fill="#575B6F"/>
                    </svg>