                                <svg width="15" height="16" viewBox="0 0 15 16" fill="none" xmlns="http://www.w3.org/2000/svg">
                                <g clip-path="url(#clip0_17_747)">
                                <path d="M0.9375 0.5C0.68886 0.5 0.450403 0.598772 0.274587 0.774587C0.0987721 0.950403 0 1.18886 0 1.4375L0 14.5625C0 14.8111 0.0987721 15.0496 0.274587 15.2254C0.450403 15.4012 0.68886 15.5 0.9375 15.5H5.625V14.5625H1.875V13.625H5.625V12.6875H3.75V11.75H5.625V10.8125H1.875V9.875H5.625V8.9375H3.75V8H5.625V7.0625H1.875V6.125H5.625V2.375H6.5625V6.125H7.5V4.25H8.4375V6.125H9.375V2.375H10.3125V6.125H11.25V4.25H12.1875V6.125H13.125V2.375H14.0625V6.125H15V1.4375C15 1.18886 14.9012 0.950403 14.7254 0.774587C14.5496 0.598772 14.3111 0.5 14.0625 0.5H0.9375Z" fill="#575B6F"/>
                                </g>
                                <defs>
                                <clipPath id="clip0_17_747">
                                <rect width="15" height="15" fill="white" transform="translate(0 0.5)"/>
                                </clipPath>
                                </defs>
                                </svg>