                <svg width="23" height="24" viewBox="0 0 23 24" fill="none" xmlns="http://www.w3.org/2000/svg">
                <path fill-rule="evenodd" clip-rule="evenodd" d="M20.6339 16.8214C20.5671 16.8883 20.4878 16.9414 20.4005 16.9776C20.3131 17.0139 20.2195 17.0325 20.125 17.0325C20.0305 17.0325 19.9368 17.0139 19.8495 16.9776C19.7622 16.9414 19.6829 16.8883 19.6161 16.8214L11.5 8.70381L3.38387 16.8214C3.31705 16.8882 3.23771 16.9412 3.1504 16.9774C3.06309 17.0135 2.9695 17.0322 2.875 17.0322C2.78049 17.0322 2.68691 17.0135 2.5996 16.9774C2.51228 16.9412 2.43295 16.8882 2.36612 16.8214C2.2993 16.7545 2.24629 16.6752 2.21012 16.5879C2.17395 16.5006 2.15534 16.407 2.15534 16.3125C2.15534 16.218 2.17395 16.1244 2.21012 16.0371C2.24629 15.9498 2.2993 15.8705 2.36612 15.8036L10.9911 7.17862C11.0579 7.11169 11.1372 7.05858 11.2245 7.02235C11.3118 6.98611 11.4055 6.96746 11.5 6.96746C11.5945 6.96746 11.6881 6.98611 11.7755 7.02235C11.8628 7.05858 11.9421 7.11169 12.0089 7.17862L20.6339 15.8036C20.7008 15.8704 20.7539 15.9497 20.7901 16.037C20.8264 16.1243 20.845 16.218 20.845 16.3125C20.845 16.407 20.8264 16.5006 20.7901 16.588C20.7539 16.6753 20.7008 16.7546 20.6339 16.8214Z" fill="#575B6F"/>
                </svg>