                    <svg width="10" height="10" viewBox="0 0 10 10" fill="none" xmlns="http://www.w3.org/2000/svg">
                        <path d="M4.52932 6.9625L1.53182 3.53625C1.17807 3.13313 1.46557 2.5 2.00245 2.5H7.99745C8.1176 2.4999 8.23523 2.53443 8.33627 2.59946C8.4373 2.6645 8.51744 2.75727 8.5671 2.86668C8.61676 2.97609 8.63383 3.0975 8.61627 3.21636C8.5987 3.33522 8.54725 3.4465 8.46807 3.53688L5.47057 6.96188C5.41191 7.02901 5.33956 7.08281 5.25839 7.11968C5.17722 7.15654 5.0891 7.17561 4.99995 7.17561C4.91079 7.17561 4.82267 7.15654 4.7415 7.11968C4.66033 7.08281 4.58798 7.02901 4.52932 6.96188V6.9625Z" fill="#2162D0"/>
                    </svg>