<svg width="12" height="16" viewBox="0 0 12 16" fill="none" xmlns="http://www.w3.org/2000/svg">
                                <path d="M11.5416 1.625V15.125C11.5416 15.2245 11.5021 15.3198 11.4318 15.3902C11.3615 15.4605 11.2661 15.5 11.1666 15.5C11.0672 15.5 10.9718 15.4605 10.9015 15.3902C10.8311 15.3198 10.7916 15.2245 10.7916 15.125V1.625C10.7916 1.52554 10.7521 1.43016 10.6818 1.35984C10.6115 1.28951 10.5161 1.25 10.4166 1.25H4.79163C4.69217 1.25 4.59679 1.28951 4.52646 1.35984C4.45613 1.43016 4.41663 1.52554 4.41663 1.625V3.875C4.64854 3.87569 4.87455 3.94815 5.06363 4.08244C5.25271 4.21673 5.39558 4.40626 5.47263 4.625H2.61063C2.68767 4.40626 2.83054 4.21673 3.01962 4.08244C3.2087 3.94815 3.43471 3.87569 3.66663 3.875V1.625C3.66692 1.32672 3.78555 1.04075 3.99646 0.829834C4.20737 0.61892 4.49335 0.500298 4.79163 0.5H10.4166C10.7149 0.500298 11.0009 0.61892 11.2118 0.829834C11.4227 1.04075 11.5413 1.32672 11.5416 1.625ZM4.04163 9.875C3.94217 9.875 3.84679 9.91451 3.77646 9.98483C3.70613 10.0552 3.66663 10.1505 3.66663 10.25V11.75C3.66663 11.8495 3.70613 11.9448 3.77646 12.0152C3.84679 12.0855 3.94217 12.125 4.04163 12.125C4.14108 12.125 4.23647 12.0855 4.30679 12.0152C4.37712 11.9448 4.41663 11.8495 4.41663 11.75V10.25C4.41663 10.1505 4.37712 10.0552 4.30679 9.98483C4.23647 9.91451 4.14108 9.875 4.04163 9.875ZM1.79163 10.25C1.69217 10.25 1.59679 10.2895 1.52646 10.3598C1.45613 10.4302 1.41663 10.5255 1.41663 10.625V11C1.41663 11.0995 1.45613 11.1948 1.52646 11.2652C1.59679 11.3355 1.69217 11.375 1.79163 11.375C1.89108 11.375 1.98647 11.3355 2.05679 11.2652C2.12712 11.1948 2.16663 11.0995 2.16663 11V10.625C2.16663 10.5255 2.12712 10.4302 2.05679 10.3598C1.98647 10.2895 1.89108 10.25 1.79163 10.25ZM5.54163 5.375H2.54163C2.04453 5.3756 1.56796 5.57333 1.21646 5.92483C0.864956 6.27633 0.667221 6.7529 0.666626 7.25V8.75C0.666626 8.84946 0.706135 8.94484 0.776461 9.01517C0.846787 9.08549 0.94217 9.125 1.04163 9.125H7.04163C7.14108 9.125 7.23646 9.08549 7.30679 9.01517C7.37712 8.94484 7.41663 8.84946 7.41663 8.75V7.25C7.41603 6.7529 7.2183 6.27633 6.86679 5.92483C6.51529 5.57333 6.03872 5.3756 5.54163 5.375ZM1.79163 12.125C1.69217 12.125 1.59679 12.1645 1.52646 12.2348C1.45613 12.3052 1.41663 12.4005 1.41663 12.5V13.25C1.41663 13.3495 1.45613 13.4448 1.52646 13.5152C1.59679 13.5855 1.69217 13.625 1.79163 13.625C1.89108 13.625 1.98647 13.5855 2.05679 13.5152C2.12712 13.4448 2.16663 13.3495 2.16663 13.25V12.5C2.16663 12.4005 2.12712 12.3052 2.05679 12.2348C1.98647 12.1645 1.89108 12.125 1.79163 12.125ZM6.29163 9.875C6.19217 9.875 6.09679 9.91451 6.02646 9.98483C5.95613 10.0552 5.91663 10.1505 5.91663 10.25V11C5.91663 11.0995 5.95613 11.1948 6.02646 11.2652C6.09679 11.3355 6.19217 11.375 6.29163 11.375C6.39108 11.375 6.48646 11.3355 6.55679 11.2652C6.62712 11.1948 6.66663 11.0995 6.66663 11V10.25C6.66663 10.1505 6.62712 10.0552 6.55679 9.98483C6.48646 9.91451 6.39108 9.875 6.29163 9.875ZM6.29163 12.125C6.19217 12.125 6.09679 12.1645 6.02646 12.2348C5.95613 12.3052 5.91663 12.4005 5.91663 12.5V13.25C5.91663 13.3495 5.95613 13.4448 6.02646 13.5152C6.09679 13.5855 6.19217 13.625 6.29163 13.625C6.39108 13.625 6.48646 13.5855 6.55679 13.5152C6.62712 13.4448 6.66663 13.3495 6.66663 13.25V12.5C6.66663 12.4005 6.62712 12.3052 6.55679 12.2348C6.48646 12.1645 6.39108 12.125 6.29163 12.125ZM4.04163 12.875C3.94217 12.875 3.84679 12.9145 3.77646 12.9848C3.70613 13.0552 3.66663 13.1505 3.66663 13.25V14C3.66663 14.0995 3.70613 14.1948 3.77646 14.2652C3.84679 14.3355 3.94217 14.375 4.04163 14.375C4.14108 14.375 4.23647 14.3355 4.30679 14.2652C4.37712 14.1948 4.41663 14.0995 4.41663 14V13.25C4.41663 13.1505 4.37712 13.0552 4.30679 12.9848C4.23647 12.9145 4.14108 12.875 4.04163 12.875Z" fill="#575B6F"/>
                                </svg>