<svg width="17" height="16" viewBox="0 0 17 16" fill="none" xmlns="http://www.w3.org/2000/svg">
                                <path d="M15 8V1.33333C15 1.11232 14.9122 0.900358 14.7559 0.744078C14.5996 0.587797 14.3877 0.5 14.1667 0.5C13.9457 0.5 13.7337 0.587797 13.5774 0.744078C13.4211 0.900358 13.3333 1.11232 13.3333 1.33333V3H3.33333V1.33333C3.33333 1.11232 3.24554 0.900358 3.08926 0.744078C2.93298 0.587797 2.72101 0.5 2.5 0.5C2.27899 0.5 2.06702 0.587797 1.91074 0.744078C1.75446 0.900358 1.66667 1.11232 1.66667 1.33333V8C1.22464 8 0.800716 8.17559 0.488155 8.48816C0.175595 8.80072 0 9.22464 0 9.66667V14.6667C0 14.8877 0.0877973 15.0996 0.244078 15.2559C0.400358 15.4122 0.61232 15.5 0.833333 15.5C1.05435 15.5 1.26631 15.4122 1.42259 15.2559C1.57887 15.0996 1.66667 14.8877 1.66667 14.6667V13H15V14.6667C15 14.8877 15.0878 15.0996 15.2441 15.2559C15.4004 15.4122 15.6123 15.5 15.8333 15.5C16.0543 15.5 16.2663 15.4122 16.4226 15.2559C16.5789 15.0996 16.6667 14.8877 16.6667 14.6667V9.66667C16.6667 9.22464 16.4911 8.80072 16.1785 8.48816C15.8659 8.17559 15.442 8 15 8ZM7.5 8H3.33333V7.16667C3.33333 6.94565 3.42113 6.73369 3.57741 6.57741C3.73369 6.42113 3.94565 6.33333 4.16667 6.33333H6.66667C6.88768 6.33333 7.09964 6.42113 7.25592 6.57741C7.4122 6.73369 7.5 6.94565 7.5 7.16667V8ZM13.3333 8H9.16667V7.16667C9.16667 6.94565 9.25446 6.73369 9.41074 6.57741C9.56702 6.42113 9.77899 6.33333 10 6.33333H12.5C12.721 6.33333 12.933 6.42113 13.0893 6.57741C13.2455 6.73369 13.3333 6.94565 13.3333 7.16667V8Z" fill="#575B6F"/>
                                </svg>