<svg width="25" height="34" viewBox="0 0 25 34" fill="none" xmlns="http://www.w3.org/2000/svg">
<path fill-rule="evenodd" clip-rule="evenodd" d="M0.25 32.4684V4.62463C0.25 3.53062 0.684597 2.48141 1.45818 1.70782C2.23177 0.934231 3.28098 0.499634 4.375 0.499634L20.875 0.499634C21.969 0.499634 23.0182 0.934231 23.7918 1.70782C24.5654 2.48141 25 3.53062 25 4.62463V32.4684C25.0001 32.6475 24.9536 32.8235 24.8651 32.9791C24.7765 33.1348 24.6489 33.2647 24.4949 33.3561C24.3409 33.4474 24.1657 33.4971 23.9867 33.5002C23.8076 33.5033 23.6309 33.4598 23.4738 33.3738L12.625 27.4544L1.77625 33.3738C1.61915 33.4598 1.44237 33.5033 1.26332 33.5002C1.08426 33.4971 0.909107 33.4474 0.755089 33.3561C0.601072 33.2647 0.473502 33.1348 0.384938 32.9791C0.296374 32.8235 0.249869 32.6475 0.25 32.4684Z" fill="#2162D0"/>
</svg>
