<svg width="25" height="34" viewBox="0 0 25 34" fill="none" xmlns="http://www.w3.org/2000/svg">
                            <path fill-rule="evenodd" clip-rule="evenodd" d="M0.25 32.4684V4.62463C0.25 3.53062 0.684597 2.48141 1.45818 1.70782C2.23177 0.934231 3.28098 0.499634 4.375 0.499634L20.875 0.499634C21.969 0.499634 23.0182 0.934231 23.7918 1.70782C24.5654 2.48141 25 3.53062 25 4.62463V32.4684C25.0001 32.6475 24.9536 32.8235 24.8651 32.9791C24.7765 33.1348 24.6489 33.2647 24.4949 33.3561C24.3409 33.4474 24.1657 33.4971 23.9867 33.5002C23.8076 33.5033 23.6309 33.4598 23.4738 33.3738L12.625 27.4544L1.77625 33.3738C1.61915 33.4598 1.44237 33.5033 1.26332 33.5002C1.08426 33.4971 0.909107 33.4474 0.755089 33.3561C0.601072 33.2647 0.473502 33.1348 0.384938 32.9791C0.296374 32.8235 0.249869 32.6475 0.25 32.4684ZM13.6562 9.78088C13.6562 9.50738 13.5476 9.24508 13.3542 9.05168C13.1608 8.85828 12.8985 8.74963 12.625 8.74963C12.3515 8.74963 12.0892 8.85828 11.8958 9.05168C11.7024 9.24508 11.5938 9.50738 11.5938 9.78088V12.8746H8.5C8.2265 12.8746 7.96419 12.9833 7.7708 13.1767C7.5774 13.3701 7.46875 13.6324 7.46875 13.9059C7.46875 14.1794 7.5774 14.4417 7.7708 14.6351C7.96419 14.8285 8.2265 14.9371 8.5 14.9371H11.5938V18.0309C11.5938 18.3044 11.7024 18.5667 11.8958 18.7601C12.0892 18.9535 12.3515 19.0621 12.625 19.0621C12.8985 19.0621 13.1608 18.9535 13.3542 18.7601C13.5476 18.5667 13.6562 18.3044 13.6562 18.0309V14.9371H16.75C17.0235 14.9371 17.2858 14.8285 17.4792 14.6351C17.6726 14.4417 17.7812 14.1794 17.7812 13.9059C17.7812 13.6324 17.6726 13.3701 17.4792 13.1767C17.2858 12.9833 17.0235 12.8746 16.75 12.8746H13.6562V9.78088Z" fill="#2162D0"/>
                            </svg>