<svg width="26" height="34" viewBox="0 0 26 34" fill="none" xmlns="http://www.w3.org/2000/svg">
    <path fill-rule="evenodd" clip-rule="evenodd" d="M24.8437 33.1875C24.5371 33.1875 24.243 33.0657 24.0261 32.8488C23.8093 32.632 23.6875 32.3379 23.6875 32.0312V1.96875C23.6875 1.66209 23.8093 1.368 24.0261 1.15116C24.243 0.934319 24.5371 0.8125 24.8437 0.8125C25.1504 0.8125 25.4445 0.934319 25.6613 1.15116C25.8782 1.368 26 1.66209 26 1.96875V32.0312C26 32.3379 25.8782 32.632 25.6613 32.8488C25.4445 33.0657 25.1504 33.1875 24.8437 33.1875ZM19.0625 17C19.0625 17.3067 18.9407 17.6008 18.7238 17.8176C18.507 18.0344 18.2129 18.1562 17.9062 18.1562H4.50993L9.47487 23.1189C9.58237 23.2264 9.66765 23.354 9.72583 23.4945C9.78401 23.6349 9.81395 23.7855 9.81395 23.9375C9.81395 24.0895 9.78401 24.2401 9.72583 24.3805C9.66765 24.521 9.58237 24.6486 9.47487 24.7561C9.36736 24.8636 9.23974 24.9489 9.09928 25.0071C8.95882 25.0653 8.80827 25.0952 8.65624 25.0952C8.50421 25.0952 8.35366 25.0653 8.2132 25.0071C8.07274 24.9489 7.94512 24.8636 7.83762 24.7561L0.900117 17.8186C0.792439 17.7112 0.707009 17.5836 0.648719 17.4432C0.590429 17.3027 0.560425 17.1521 0.560425 17C0.560425 16.8479 0.590429 16.6973 0.648719 16.5568C0.707009 16.4164 0.792439 16.2888 0.900117 16.1814L7.83762 9.24387C8.05473 9.02676 8.3492 8.90479 8.65624 8.90479C8.96329 8.90479 9.25775 9.02676 9.47487 9.24387C9.69198 9.46099 9.81395 9.75546 9.81395 10.0625C9.81395 10.3695 9.69198 10.664 9.47487 10.8811L4.50993 15.8438H17.9062C18.2129 15.8438 18.507 15.9656 18.7238 16.1824C18.9407 16.3992 19.0625 16.6933 19.0625 17Z" fill="#575B6F"/>
</svg>
