<svg width="24" height="14" viewBox="0 0 24 14" fill="none" xmlns="http://www.w3.org/2000/svg">
                <path d="M7.75 12.8125C7.75 12.5556 7.85206 12.3092 8.03374 12.1275C8.21542 11.9458 8.46182 11.8438 8.71875 11.8438H14.5312C14.7882 11.8438 15.0346 11.9458 15.2163 12.1275C15.3979 12.3092 15.5 12.5556 15.5 12.8125C15.5 13.0694 15.3979 13.3158 15.2163 13.4975C15.0346 13.6792 14.7882 13.7812 14.5312 13.7812H8.71875C8.46182 13.7812 8.21542 13.6792 8.03374 13.4975C7.85206 13.3158 7.75 13.0694 7.75 12.8125ZM3.875 7C3.875 6.74307 3.97706 6.49667 4.15874 6.31499C4.34042 6.13331 4.58682 6.03125 4.84375 6.03125H18.4062C18.6632 6.03125 18.9096 6.13331 19.0913 6.31499C19.2729 6.49667 19.375 6.74307 19.375 7C19.375 7.25693 19.2729 7.50333 19.0913 7.68501C18.9096 7.86669 18.6632 7.96875 18.4062 7.96875H4.84375C4.58682 7.96875 4.34042 7.86669 4.15874 7.68501C3.97706 7.50333 3.875 7.25693 3.875 7ZM0 1.1875C0 0.930571 0.102065 0.684166 0.28374 0.50249C0.465416 0.320815 0.711821 0.21875 0.96875 0.21875H22.2812C22.5382 0.21875 22.7846 0.320815 22.9663 0.50249C23.1479 0.684166 23.25 0.930571 23.25 1.1875C23.25 1.44443 23.1479 1.69083 22.9663 1.87251C22.7846 2.05419 22.5382 2.15625 22.2812 2.15625H0.96875C0.711821 2.15625 0.465416 2.05419 0.28374 1.87251C0.102065 1.69083 0 1.44443 0 1.1875Z" fill="#575B6F"/>
                </svg>