<svg width="16" height="16" viewBox="0 0 16 16" fill="none" xmlns="http://www.w3.org/2000/svg">
                    <path fill-rule="evenodd" clip-rule="evenodd" d="M4.64596 14.3541C4.5994 14.3076 4.56246 14.2525 4.53725 14.1917C4.51204 14.131 4.49907 14.0658 4.49907 14.0001C4.49907 13.9343 4.51204 13.8692 4.53725 13.8084C4.56246 13.7477 4.5994 13.6925 4.64596 13.6461L10.293 8.00008L4.64596 2.35408C4.55208 2.2602 4.49933 2.13286 4.49933 2.00008C4.49933 1.86731 4.55208 1.73997 4.64596 1.64608C4.73985 1.5522 4.86719 1.49945 4.99996 1.49945C5.13274 1.49945 5.26008 1.5522 5.35396 1.64608L11.354 7.64608C11.4005 7.69253 11.4375 7.7477 11.4627 7.80845C11.4879 7.86919 11.5009 7.93432 11.5009 8.00008C11.5009 8.06585 11.4879 8.13097 11.4627 8.19172C11.4375 8.25246 11.4005 8.30764 11.354 8.35408L5.35396 14.3541C5.30752 14.4006 5.25234 14.4376 5.19159 14.4628C5.13085 14.488 5.06573 14.501 4.99996 14.501C4.93419 14.501 4.86907 14.488 4.80833 14.4628C4.74758 14.4376 4.69241 14.4006 4.64596 14.3541Z" fill="#444F85"/>
                    </svg>