<svg width="19" height="20" viewBox="0 0 19 20" fill="none" xmlns="http://www.w3.org/2000/svg">
                <g clip-path="url(#clip0_15_267)">
                <path d="M13.9435 12.7837C15.0934 11.2147 15.6084 9.2693 15.3855 7.33683C15.1626 5.40437 14.2183 3.62731 12.7415 2.36119C11.2647 1.09506 9.36423 0.433248 7.4204 0.508147C5.47657 0.583046 3.63269 1.38914 2.25766 2.76515C0.882636 4.14116 0.0778665 5.98561 0.00435809 7.9295C-0.0691503 9.87338 0.594024 11.7733 1.8612 13.2493C3.12838 14.7252 4.90612 15.6682 6.83874 15.8897C8.77137 16.1112 10.7164 15.5948 12.2846 14.4438H12.2834C12.3182 14.4913 12.357 14.5369 12.3998 14.5804L16.9717 19.1523C17.1943 19.3751 17.4964 19.5003 17.8114 19.5005C18.1264 19.5006 18.4286 19.3755 18.6514 19.1529C18.8742 18.9302 18.9994 18.6281 18.9996 18.3131C18.9997 17.9981 18.8746 17.696 18.652 17.4732L14.0801 12.9013C14.0377 12.8583 13.992 12.8198 13.9435 12.7837ZM14.2499 8.21897C14.2499 9.07666 14.081 9.92596 13.7527 10.7184C13.4245 11.5108 12.9434 12.2308 12.3369 12.8373C11.7305 13.4437 11.0105 13.9248 10.2181 14.2531C9.42565 14.5813 8.57635 14.7502 7.71866 14.7502C6.86096 14.7502 6.01166 14.5813 5.21926 14.2531C4.42685 13.9248 3.70685 13.4437 3.10037 12.8373C2.49388 12.2308 2.01279 11.5108 1.68457 10.7184C1.35634 9.92596 1.18741 9.07666 1.18741 8.21897C1.18741 6.48677 1.87552 4.82552 3.10037 3.60068C4.32521 2.37583 5.98646 1.68772 7.71866 1.68772C9.45085 1.68772 11.1121 2.37583 12.3369 3.60068C13.5618 4.82552 14.2499 6.48677 14.2499 8.21897Z" fill="#A6ABC6"/>
                </g>
                <defs>
                <clipPath id="clip0_15_267">
                <rect width="19" height="19" fill="white" transform="translate(0 0.5)"/>
                </clipPath>
                </defs>
                </svg>