<svg width="16" height="16" viewBox="0 0 16 16" fill="none" xmlns="http://www.w3.org/2000/svg">
                <path fill-rule="evenodd" clip-rule="evenodd" d="M7.64596 14.3541C7.5994 14.3076 7.56246 14.2525 7.53725 14.1917C7.51204 14.131 7.49907 14.0658 7.49907 14.0001C7.49907 13.9343 7.51204 13.8692 7.53725 13.8084C7.56246 13.7477 7.5994 13.6925 7.64596 13.6461L13.293 8.00008L7.64596 2.35408C7.55208 2.2602 7.49933 2.13286 7.49933 2.00008C7.49933 1.86731 7.55208 1.73997 7.64596 1.64608C7.73985 1.5522 7.86719 1.49945 7.99996 1.49945C8.13274 1.49945 8.26008 1.5522 8.35396 1.64608L14.354 7.64608C14.4005 7.69253 14.4375 7.7477 14.4627 7.80845C14.4879 7.86919 14.5009 7.93432 14.5009 8.00008C14.5009 8.06585 14.4879 8.13097 14.4627 8.19172C14.4375 8.25246 14.4005 8.30764 14.354 8.35408L8.35396 14.3541C8.30752 14.4006 8.25234 14.4376 8.19159 14.4628C8.13085 14.488 8.06573 14.501 7.99996 14.501C7.93419 14.501 7.86907 14.488 7.80833 14.4628C7.74758 14.4376 7.69241 14.4006 7.64596 14.3541Z" fill="#444F85"/>
                <path fill-rule="evenodd" clip-rule="evenodd" d="M3.64596 14.3541C3.5994 14.3076 3.56246 14.2525 3.53725 14.1917C3.51204 14.131 3.49907 14.0658 3.49907 14.0001C3.49907 13.9343 3.51204 13.8692 3.53725 13.8084C3.56246 13.7477 3.5994 13.6925 3.64596 13.6461L9.29296 8.00008L3.64596 2.35408C3.59947 2.30759 3.5626 2.25241 3.53744 2.19167C3.51228 2.13093 3.49933 2.06583 3.49933 2.00008C3.49933 1.93434 3.51228 1.86924 3.53744 1.8085C3.5626 1.74776 3.59947 1.69257 3.64596 1.64608C3.69245 1.59959 3.74764 1.56272 3.80838 1.53756C3.86912 1.5124 3.93422 1.49945 3.99996 1.49945C4.06571 1.49945 4.13081 1.5124 4.19155 1.53756C4.25229 1.56272 4.30747 1.59959 4.35396 1.64608L10.354 7.64608C10.4005 7.69253 10.4375 7.7477 10.4627 7.80845C10.4879 7.86919 10.5009 7.93432 10.5009 8.00008C10.5009 8.06585 10.4879 8.13097 10.4627 8.19172C10.4375 8.25246 10.4005 8.30764 10.354 8.35408L4.35396 14.3541C4.30752 14.4006 4.25234 14.4376 4.19159 14.4628C4.13085 14.488 4.06573 14.501 3.99996 14.501C3.93419 14.501 3.86907 14.488 3.80833 14.4628C3.74758 14.4376 3.69241 14.4006 3.64596 14.3541Z" fill="#444F85"/>
                </svg>