<svg width="13" height="14" viewBox="0 0 13 14" fill="none" xmlns="http://www.w3.org/2000/svg">
                    <path d="M0.257064 1.13072C0.338344 1.04924 0.434901 0.984585 0.541205 0.940474C0.647509 0.896362 0.761471 0.873657 0.876564 0.873657C0.991657 0.873657 1.10562 0.896362 1.21192 0.940474C1.31823 0.984585 1.41478 1.04924 1.49606 1.13072L6.12656 5.76297L10.7571 1.13072C10.8384 1.04937 10.935 0.984833 11.0413 0.940805C11.1476 0.896777 11.2615 0.874115 11.3766 0.874115C11.4916 0.874115 11.6055 0.896777 11.7118 0.940805C11.8181 0.984833 11.9147 1.04937 11.9961 1.13072C12.0774 1.21207 12.142 1.30866 12.186 1.41495C12.23 1.52124 12.2527 1.63517 12.2527 1.75022C12.2527 1.86527 12.23 1.9792 12.186 2.08549C12.142 2.19179 12.0774 2.28837 11.9961 2.36972L7.36381 7.00022L11.9961 11.6307C12.0774 11.7121 12.142 11.8087 12.186 11.9149C12.23 12.0212 12.2527 12.1352 12.2527 12.2502C12.2527 12.3653 12.23 12.4792 12.186 12.5855C12.142 12.6918 12.0774 12.7884 11.9961 12.8697C11.9147 12.9511 11.8181 13.0156 11.7118 13.0596C11.6055 13.1037 11.4916 13.1263 11.3766 13.1263C11.2615 13.1263 11.1476 13.1037 11.0413 13.0596C10.935 13.0156 10.8384 12.9511 10.7571 12.8697L6.12656 8.23747L1.49606 12.8697C1.41471 12.9511 1.31813 13.0156 1.21184 13.0596C1.10554 13.1037 0.991616 13.1263 0.876564 13.1263C0.761512 13.1263 0.647586 13.1037 0.541292 13.0596C0.434998 13.0156 0.338418 12.9511 0.257064 12.8697C0.17571 12.7884 0.111176 12.6918 0.0671477 12.5855C0.0231193 12.4792 0.000458121 12.3653 0.000458121 12.2502C0.000458121 12.1352 0.0231193 12.0212 0.0671477 11.9149C0.111176 11.8087 0.17571 11.7121 0.257064 11.6307L4.88931 7.00022L0.257064 2.36972C0.175578 2.28844 0.110928 2.19188 0.0668164 2.08558C0.0227052 1.97928 0 1.86531 0 1.75022C0 1.63513 0.0227052 1.52117 0.0668164 1.41486C0.110928 1.30856 0.175578 1.212 0.257064 1.13072Z" fill="#FAF9F6"/>
                    </svg>