<svg width="41" height="40" viewBox="0 0 41 40" fill="none" xmlns="http://www.w3.org/2000/svg">
                    <rect x="0.600052" width="40" height="40" rx="20" fill="#D0D9EF"/>
                    <path d="M22.6001 16H23.6001C23.8653 16 24.1196 15.8946 24.3072 15.7071C24.4947 15.5196 24.6001 15.2652 24.6001 15C24.6001 14.7348 24.4947 14.4804 24.3072 14.2929C24.1196 14.1054 23.8653 14 23.6001 14H22.6001C22.3348 14 22.0805 14.1054 21.8929 14.2929C21.7054 14.4804 21.6001 14.7348 21.6001 15C21.6001 15.2652 21.7054 15.5196 21.8929 15.7071C22.0805 15.8946 22.3348 16 22.6001 16ZM22.6001 20H23.6001C23.8653 20 24.1196 19.8946 24.3072 19.7071C24.4947 19.5196 24.6001 19.2652 24.6001 19C24.6001 18.7348 24.4947 18.4804 24.3072 18.2929C24.1196 18.1054 23.8653 18 23.6001 18H22.6001C22.3348 18 22.0805 18.1054 21.8929 18.2929C21.7054 18.4804 21.6001 18.7348 21.6001 19C21.6001 19.2652 21.7054 19.5196 21.8929 19.7071C22.0805 19.8946 22.3348 20 22.6001 20ZM17.6001 16H18.6001C18.8653 16 19.1196 15.8946 19.3072 15.7071C19.4947 15.5196 19.6001 15.2652 19.6001 15C19.6001 14.7348 19.4947 14.4804 19.3072 14.2929C19.1196 14.1054 18.8653 14 18.6001 14H17.6001C17.3348 14 17.0805 14.1054 16.8929 14.2929C16.7054 14.4804 16.6001 14.7348 16.6001 15C16.6001 15.2652 16.7054 15.5196 16.8929 15.7071C17.0805 15.8946 17.3348 16 17.6001 16ZM17.6001 20H18.6001C18.8653 20 19.1196 19.8946 19.3072 19.7071C19.4947 19.5196 19.6001 19.2652 19.6001 19C19.6001 18.7348 19.4947 18.4804 19.3072 18.2929C19.1196 18.1054 18.8653 18 18.6001 18H17.6001C17.3348 18 17.0805 18.1054 16.8929 18.2929C16.7054 18.4804 16.6001 18.7348 16.6001 19C16.6001 19.2652 16.7054 19.5196 16.8929 19.7071C17.0805 19.8946 17.3348 20 17.6001 20ZM29.6001 28H28.6001V11C28.6001 10.7348 28.4947 10.4804 28.3072 10.2929C28.1196 10.1054 27.8653 10 27.6001 10H13.6001C13.3348 10 13.0805 10.1054 12.8929 10.2929C12.7054 10.4804 12.6001 10.7348 12.6001 11V28H11.6001C11.3348 28 11.0805 28.1054 10.8929 28.2929C10.7054 28.4804 10.6001 28.7348 10.6001 29C10.6001 29.2652 10.7054 29.5196 10.8929 29.7071C11.0805 29.8946 11.3348 30 11.6001 30H29.6001C29.8653 30 30.1196 29.8946 30.3072 29.7071C30.4947 29.5196 30.6001 29.2652 30.6001 29C30.6001 28.7348 30.4947 28.4804 30.3072 28.2929C30.1196 28.1054 29.8653 28 29.6001 28ZM21.6001 28H19.6001V24H21.6001V28ZM26.6001 28H23.6001V23C23.6001 22.7348 23.4947 22.4804 23.3072 22.2929C23.1196 22.1054 22.8653 22 22.6001 22H18.6001C18.3348 22 18.0805 22.1054 17.8929 22.2929C17.7054 22.4804 17.6001 22.7348 17.6001 23V28H14.6001V12H26.6001V28Z" fill="#444F85"/>
                    </svg>