                                <svg width="18" height="18" viewBox="0 0 18 18" fill="none" xmlns="http://www.w3.org/2000/svg">
                                    <path fill-rule="evenodd" clip-rule="evenodd" d="M5.43638 2.24885C5.48573 2.19937 5.54435 2.16012 5.60889 2.13334C5.67343 2.10656 5.74263 2.09277 5.8125 2.09277C5.88238 2.09277 5.95157 2.10656 6.01611 2.13334C6.08066 2.16012 6.13928 2.19937 6.18863 2.24885L12.5636 8.62385C12.6131 8.6732 12.6524 8.73182 12.6791 8.79636C12.7059 8.8609 12.7197 8.9301 12.7197 8.99997C12.7197 9.06985 12.7059 9.13904 12.6791 9.20358C12.6524 9.26813 12.6131 9.32675 12.5636 9.3761L6.18863 15.7511C6.08887 15.8509 5.95358 15.9069 5.8125 15.9069C5.67143 15.9069 5.53613 15.8509 5.43638 15.7511C5.33662 15.6513 5.28058 15.516 5.28058 15.375C5.28058 15.2339 5.33662 15.0986 5.43638 14.9988L11.4363 8.99997L5.43638 3.0011C5.3869 2.95175 5.34765 2.89313 5.32087 2.82858C5.29409 2.76404 5.2803 2.69485 5.2803 2.62497C5.2803 2.5551 5.29409 2.4859 5.32087 2.42136C5.34765 2.35682 5.3869 2.2982 5.43638 2.24885Z" fill="#FAF9F6"/>
                                </svg>