<svg width="41" height="40" viewBox="0 0 41 40" fill="none" xmlns="http://www.w3.org/2000/svg">
                    <rect x="0.399963" width="40" height="40" rx="20" fill="#D0D9EF"/>
                    <path d="M22.4 16H23.4C23.6652 16 23.9195 15.8946 24.1071 15.7071C24.2946 15.5196 24.4 15.2652 24.4 15C24.4 14.7348 24.2946 14.4804 24.1071 14.2929C23.9195 14.1054 23.6652 14 23.4 14H22.4C22.1347 14 21.8804 14.1054 21.6929 14.2929C21.5053 14.4804 21.4 14.7348 21.4 15C21.4 15.2652 21.5053 15.5196 21.6929 15.7071C21.8804 15.8946 22.1347 16 22.4 16ZM22.4 20H23.4C23.6652 20 23.9195 19.8946 24.1071 19.7071C24.2946 19.5196 24.4 19.2652 24.4 19C24.4 18.7348 24.2946 18.4804 24.1071 18.2929C23.9195 18.1054 23.6652 18 23.4 18H22.4C22.1347 18 21.8804 18.1054 21.6929 18.2929C21.5053 18.4804 21.4 18.7348 21.4 19C21.4 19.2652 21.5053 19.5196 21.6929 19.7071C21.8804 19.8946 22.1347 20 22.4 20ZM17.4 16H18.4C18.6652 16 18.9195 15.8946 19.1071 15.7071C19.2946 15.5196 19.4 15.2652 19.4 15C19.4 14.7348 19.2946 14.4804 19.1071 14.2929C18.9195 14.1054 18.6652 14 18.4 14H17.4C17.1347 14 16.8804 14.1054 16.6929 14.2929C16.5053 14.4804 16.4 14.7348 16.4 15C16.4 15.2652 16.5053 15.5196 16.6929 15.7071C16.8804 15.8946 17.1347 16 17.4 16ZM17.4 20H18.4C18.6652 20 18.9195 19.8946 19.1071 19.7071C19.2946 19.5196 19.4 19.2652 19.4 19C19.4 18.7348 19.2946 18.4804 19.1071 18.2929C18.9195 18.1054 18.6652 18 18.4 18H17.4C17.1347 18 16.8804 18.1054 16.6929 18.2929C16.5053 18.4804 16.4 18.7348 16.4 19C16.4 19.2652 16.5053 19.5196 16.6929 19.7071C16.8804 19.8946 17.1347 20 17.4 20ZM29.4 28H28.4V11C28.4 10.7348 28.2946 10.4804 28.1071 10.2929C27.9195 10.1054 27.6652 10 27.4 10H13.4C13.1347 10 12.8804 10.1054 12.6929 10.2929C12.5053 10.4804 12.4 10.7348 12.4 11V28H11.4C11.1347 28 10.8804 28.1054 10.6929 28.2929C10.5053 28.4804 10.4 28.7348 10.4 29C10.4 29.2652 10.5053 29.5196 10.6929 29.7071C10.8804 29.8946 11.1347 30 11.4 30H29.4C29.6652 30 29.9195 29.8946 30.1071 29.7071C30.2946 29.5196 30.4 29.2652 30.4 29C30.4 28.7348 30.2946 28.4804 30.1071 28.2929C29.9195 28.1054 29.6652 28 29.4 28ZM21.4 28H19.4V24H21.4V28ZM26.4 28H23.4V23C23.4 22.7348 23.2946 22.4804 23.1071 22.2929C22.9195 22.1054 22.6652 22 22.4 22H18.4C18.1347 22 17.8804 22.1054 17.6929 22.2929C17.5053 22.4804 17.4 22.7348 17.4 23V28H14.4V12H26.4V28Z" fill="#444F85"/>
                    </svg>