<svg width="40" height="40" viewBox="0 0 40 40" fill="none" xmlns="http://www.w3.org/2000/svg">
                    <rect width="40" height="40" rx="20" fill="#D0D9EF"/>
                    <path d="M16.4286 24.6429V25.3571C16.4286 25.4539 16.3932 25.5376 16.3225 25.6083C16.2519 25.6789 16.1682 25.7143 16.0714 25.7143H15.3571C15.2604 25.7143 15.1767 25.6789 15.106 25.6083C15.0353 25.5376 15 25.4539 15 25.3571V24.6429C15 24.5461 15.0353 24.4624 15.106 24.3917C15.1767 24.3211 15.2604 24.2857 15.3571 24.2857H16.0714C16.1682 24.2857 16.2519 24.3211 16.3225 24.3917C16.3932 24.4624 16.4286 24.5461 16.4286 24.6429ZM16.4286 21.7857V22.5C16.4286 22.5967 16.3932 22.6804 16.3225 22.7511C16.2519 22.8218 16.1682 22.8571 16.0714 22.8571H15.3571C15.2604 22.8571 15.1767 22.8218 15.106 22.7511C15.0353 22.6804 15 22.5967 15 22.5V21.7857C15 21.689 15.0353 21.6053 15.106 21.5346C15.1767 21.4639 15.2604 21.4286 15.3571 21.4286H16.0714C16.1682 21.4286 16.2519 21.4639 16.3225 21.5346C16.3932 21.6053 16.4286 21.689 16.4286 21.7857ZM19.2857 21.7857V22.5C19.2857 22.5967 19.2504 22.6804 19.1797 22.7511C19.109 22.8218 19.0253 22.8571 18.9286 22.8571H18.2143C18.1176 22.8571 18.0338 22.8218 17.9632 22.7511C17.8925 22.6804 17.8571 22.5967 17.8571 22.5V21.7857C17.8571 21.689 17.8925 21.6053 17.9632 21.5346C18.0338 21.4639 18.1176 21.4286 18.2143 21.4286H18.9286C19.0253 21.4286 19.109 21.4639 19.1797 21.5346C19.2504 21.6053 19.2857 21.689 19.2857 21.7857ZM16.4286 18.9286V19.6429C16.4286 19.7396 16.3932 19.8233 16.3225 19.894C16.2519 19.9647 16.1682 20 16.0714 20H15.3571C15.2604 20 15.1767 19.9647 15.106 19.894C15.0353 19.8233 15 19.7396 15 19.6429V18.9286C15 18.8318 15.0353 18.7481 15.106 18.6775C15.1767 18.6068 15.2604 18.5714 15.3571 18.5714H16.0714C16.1682 18.5714 16.2519 18.6068 16.3225 18.6775C16.3932 18.7481 16.4286 18.8318 16.4286 18.9286ZM25 24.6429V25.3571C25 25.4539 24.9647 25.5376 24.894 25.6083C24.8233 25.6789 24.7396 25.7143 24.6429 25.7143H23.9286C23.8318 25.7143 23.7481 25.6789 23.6775 25.6083C23.6068 25.5376 23.5714 25.4539 23.5714 25.3571V24.6429C23.5714 24.5461 23.6068 24.4624 23.6775 24.3917C23.7481 24.3211 23.8318 24.2857 23.9286 24.2857H24.6429C24.7396 24.2857 24.8233 24.3211 24.894 24.3917C24.9647 24.4624 25 24.5461 25 24.6429ZM22.1429 21.7857V22.5C22.1429 22.5967 22.1075 22.6804 22.0368 22.7511C21.9661 22.8218 21.8824 22.8571 21.7857 22.8571H21.0714C20.9747 22.8571 20.891 22.8218 20.8203 22.7511C20.7496 22.6804 20.7143 22.5967 20.7143 22.5V21.7857C20.7143 21.689 20.7496 21.6053 20.8203 21.5346C20.891 21.4639 20.9747 21.4286 21.0714 21.4286H21.7857C21.8824 21.4286 21.9661 21.4639 22.0368 21.5346C22.1075 21.6053 22.1429 21.689 22.1429 21.7857ZM19.2857 18.9286V19.6429C19.2857 19.7396 19.2504 19.8233 19.1797 19.894C19.109 19.9647 19.0253 20 18.9286 20H18.2143C18.1176 20 18.0338 19.9647 17.9632 19.894C17.8925 19.8233 17.8571 19.7396 17.8571 19.6429V18.9286C17.8571 18.8318 17.8925 18.7481 17.9632 18.6775C18.0338 18.6068 18.1176 18.5714 18.2143 18.5714H18.9286C19.0253 18.5714 19.109 18.6068 19.1797 18.6775C19.2504 18.7481 19.2857 18.8318 19.2857 18.9286ZM16.4286 16.0714V16.7857C16.4286 16.8824 16.3932 16.9661 16.3225 17.0368C16.2519 17.1075 16.1682 17.1429 16.0714 17.1429H15.3571C15.2604 17.1429 15.1767 17.1075 15.106 17.0368C15.0353 16.9661 15 16.8824 15 16.7857V16.0714C15 15.9747 15.0353 15.891 15.106 15.8203C15.1767 15.7496 15.2604 15.7143 15.3571 15.7143H16.0714C16.1682 15.7143 16.2519 15.7496 16.3225 15.8203C16.3932 15.891 16.4286 15.9747 16.4286 16.0714ZM25 21.7857V22.5C25 22.5967 24.9647 22.6804 24.894 22.7511C24.8233 22.8218 24.7396 22.8571 24.6429 22.8571H23.9286C23.8318 22.8571 23.7481 22.8218 23.6775 22.7511C23.6068 22.6804 23.5714 22.5967 23.5714 22.5V21.7857C23.5714 21.689 23.6068 21.6053 23.6775 21.5346C23.7481 21.4639 23.8318 21.4286 23.9286 21.4286H24.6429C24.7396 21.4286 24.8233 21.4639 24.894 21.5346C24.9647 21.6053 25 21.689 25 21.7857ZM22.1429 18.9286V19.6429C22.1429 19.7396 22.1075 19.8233 22.0368 19.894C21.9661 19.9647 21.8824 20 21.7857 20H21.0714C20.9747 20 20.891 19.9647 20.8203 19.894C20.7496 19.8233 20.7143 19.7396 20.7143 19.6429V18.9286C20.7143 18.8318 20.7496 18.7481 20.8203 18.6775C20.891 18.6068 20.9747 18.5714 21.0714 18.5714H21.7857C21.8824 18.5714 21.9661 18.6068 22.0368 18.6775C22.1075 18.7481 22.1429 18.8318 22.1429 18.9286ZM19.2857 16.0714V16.7857C19.2857 16.8824 19.2504 16.9661 19.1797 17.0368C19.109 17.1075 19.0253 17.1429 18.9286 17.1429H18.2143C18.1176 17.1429 18.0338 17.1075 17.9632 17.0368C17.8925 16.9661 17.8571 16.8824 17.8571 16.7857V16.0714C17.8571 15.9747 17.8925 15.891 17.9632 15.8203C18.0338 15.7496 18.1176 15.7143 18.2143 15.7143H18.9286C19.0253 15.7143 19.109 15.7496 19.1797 15.8203C19.2504 15.891 19.2857 15.9747 19.2857 16.0714ZM16.4286 13.2143V13.9286C16.4286 14.0253 16.3932 14.109 16.3225 14.1797C16.2519 14.2504 16.1682 14.2857 16.0714 14.2857H15.3571C15.2604 14.2857 15.1767 14.2504 15.106 14.1797C15.0353 14.109 15 14.0253 15 13.9286V13.2143C15 13.1176 15.0353 13.0339 15.106 12.9632C15.1767 12.8925 15.2604 12.8571 15.3571 12.8571H16.0714C16.1682 12.8571 16.2519 12.8925 16.3225 12.9632C16.3932 13.0339 16.4286 13.1176 16.4286 13.2143ZM25 18.9286V19.6429C25 19.7396 24.9647 19.8233 24.894 19.894C24.8233 19.9647 24.7396 20 24.6429 20H23.9286C23.8318 20 23.7481 19.9647 23.6775 19.894C23.6068 19.8233 23.5714 19.7396 23.5714 19.6429V18.9286C23.5714 18.8318 23.6068 18.7481 23.6775 18.6775C23.7481 18.6068 23.8318 18.5714 23.9286 18.5714H24.6429C24.7396 18.5714 24.8233 18.6068 24.894 18.6775C24.9647 18.7481 25 18.8318 25 18.9286ZM22.1429 16.0714V16.7857C22.1429 16.8824 22.1075 16.9661 22.0368 17.0368C21.9661 17.1075 21.8824 17.1429 21.7857 17.1429H21.0714C20.9747 17.1429 20.891 17.1075 20.8203 17.0368C20.7496 16.9661 20.7143 16.8824 20.7143 16.7857V16.0714C20.7143 15.9747 20.7496 15.891 20.8203 15.8203C20.891 15.7496 20.9747 15.7143 21.0714 15.7143H21.7857C21.8824 15.7143 21.9661 15.7496 22.0368 15.8203C22.1075 15.891 22.1429 15.9747 22.1429 16.0714ZM19.2857 13.2143V13.9286C19.2857 14.0253 19.2504 14.109 19.1797 14.1797C19.109 14.2504 19.0253 14.2857 18.9286 14.2857H18.2143C18.1176 14.2857 18.0338 14.2504 17.9632 14.1797C17.8925 14.109 17.8571 14.0253 17.8571 13.9286V13.2143C17.8571 13.1176 17.8925 13.0339 17.9632 12.9632C18.0338 12.8925 18.1176 12.8571 18.2143 12.8571H18.9286C19.0253 12.8571 19.109 12.8925 19.1797 12.9632C19.2504 13.0339 19.2857 13.1176 19.2857 13.2143ZM25 16.0714V16.7857C25 16.8824 24.9647 16.9661 24.894 17.0368C24.8233 17.1075 24.7396 17.1429 24.6429 17.1429H23.9286C23.8318 17.1429 23.7481 17.1075 23.6775 17.0368C23.6068 16.9661 23.5714 16.8824 23.5714 16.7857V16.0714C23.5714 15.9747 23.6068 15.891 23.6775 15.8203C23.7481 15.7496 23.8318 15.7143 23.9286 15.7143H24.6429C24.7396 15.7143 24.8233 15.7496 24.894 15.8203C24.9647 15.891 25 15.9747 25 16.0714ZM22.1429 13.2143V13.9286C22.1429 14.0253 22.1075 14.109 22.0368 14.1797C21.9661 14.2504 21.8824 14.2857 21.7857 14.2857H21.0714C20.9747 14.2857 20.891 14.2504 20.8203 14.1797C20.7496 14.109 20.7143 14.0253 20.7143 13.9286V13.2143C20.7143 13.1176 20.7496 13.0339 20.8203 12.9632C20.891 12.8925 20.9747 12.8571 21.0714 12.8571H21.7857C21.8824 12.8571 21.9661 12.8925 22.0368 12.9632C22.1075 13.0339 22.1429 13.1176 22.1429 13.2143ZM25 13.2143V13.9286C25 14.0253 24.9647 14.109 24.894 14.1797C24.8233 14.2504 24.7396 14.2857 24.6429 14.2857H23.9286C23.8318 14.2857 23.7481 14.2504 23.6775 14.1797C23.6068 14.109 23.5714 14.0253 23.5714 13.9286V13.2143C23.5714 13.1176 23.6068 13.0339 23.6775 12.9632C23.7481 12.8925 23.8318 12.8571 23.9286 12.8571H24.6429C24.7396 12.8571 24.8233 12.8925 24.894 12.9632C24.9647 13.0339 25 13.1176 25 13.2143ZM22.1429 28.5714H26.4286V11.4286H13.5714V28.5714H17.8571V26.0714C17.8571 25.9747 17.8925 25.891 17.9632 25.8203C18.0338 25.7496 18.1176 25.7143 18.2143 25.7143H21.7857C21.8824 25.7143 21.9661 25.7496 22.0368 25.8203C22.1075 25.891 22.1429 25.9747 22.1429 26.0714V28.5714ZM27.8571 10.7143V29.2857C27.8571 29.4792 27.7865 29.6466 27.6451 29.7879C27.5037 29.9293 27.3363 30 27.1429 30H12.8571C12.6637 30 12.4963 29.9293 12.3549 29.7879C12.2135 29.6466 12.1429 29.4792 12.1429 29.2857V10.7143C12.1429 10.5208 12.2135 10.3534 12.3549 10.2121C12.4963 10.0707 12.6637 10 12.8571 10H27.1429C27.3363 10 27.5037 10.0707 27.6451 10.2121C27.7865 10.3534 27.8571 10.5208 27.8571 10.7143Z" fill="#444F85"/>
                    </svg>