<svg width="45" height="44" viewBox="0 0 45 44" fill="none" xmlns="http://www.w3.org/2000/svg">
                    <rect x="0.799988" width="44" height="44" rx="22" fill="#D0D9EF"/>
                    <path d="M32.46 20.25L23.46 12.25C23.2775 12.0897 23.0429 12.0013 22.8 12.0013C22.5571 12.0013 22.3225 12.0897 22.14 12.25L13.14 20.25C12.987 20.3853 12.8792 20.5642 12.8309 20.7627C12.7826 20.9611 12.7963 21.1696 12.87 21.36C12.9425 21.548 13.0701 21.7096 13.236 21.8238C13.402 21.938 13.5985 21.9994 13.8 22H14.8V31C14.8 31.2652 14.9053 31.5196 15.0929 31.7071C15.2804 31.8947 15.5348 32 15.8 32H29.8C30.0652 32 30.3196 31.8947 30.5071 31.7071C30.6946 31.5196 30.8 31.2652 30.8 31V22H31.8C32.0014 21.9994 32.198 21.938 32.3639 21.8238C32.5299 21.7096 32.6575 21.548 32.73 21.36C32.8037 21.1696 32.8174 20.9611 32.7691 20.7627C32.7208 20.5642 32.6129 20.3853 32.46 20.25ZM23.8 30H21.8V27C21.8 26.7348 21.9053 26.4804 22.0929 26.2929C22.2804 26.1054 22.5348 26 22.8 26C23.0652 26 23.3196 26.1054 23.5071 26.2929C23.6946 26.4804 23.8 26.7348 23.8 27V30ZM28.8 30H25.8V27C25.8 26.2044 25.4839 25.4413 24.9213 24.8787C24.3587 24.3161 23.5956 24 22.8 24C22.0043 24 21.2413 24.3161 20.6787 24.8787C20.1161 25.4413 19.8 26.2044 19.8 27V30H16.8V22H28.8V30ZM16.43 20L22.8 14.34L29.17 20H16.43Z" fill="#444F85"/>
                    </svg>