<svg width="41" height="40" viewBox="0 0 41 40" fill="none" xmlns="http://www.w3.org/2000/svg">
                    <rect x="0.200027" width="40" height="39.7539" rx="19.877" fill="#D0D9EF"/>
                    <path d="M27.1219 20.8647V28.7662C27.1219 29.0282 27.0179 29.2794 26.8327 29.4646C26.6474 29.6499 26.3962 29.7539 26.1342 29.7539C25.8723 29.7539 25.6211 29.6499 25.4358 29.4646C25.2506 29.2794 25.1466 29.0282 25.1466 28.7662V21.8523H15.2696V28.7662C15.2696 29.0282 15.1655 29.2794 14.9803 29.4646C14.7951 29.6499 14.5439 29.7539 14.2819 29.7539C14.0199 29.7539 13.7687 29.6499 13.5835 29.4646C13.3983 29.2794 13.2942 29.0282 13.2942 28.7662V20.8647C13.2942 20.6027 13.3983 20.3515 13.5835 20.1662C13.7687 19.981 14.0199 19.877 14.2819 19.877H26.1342C26.3962 19.877 26.6474 19.981 26.8327 20.1662C27.0179 20.3515 27.1219 20.6027 27.1219 20.8647ZM22.1835 22.84H18.2327C17.9707 22.84 17.7195 22.9441 17.5343 23.1293C17.349 23.3146 17.245 23.5658 17.245 23.8277V28.7662C17.245 29.0282 17.349 29.2794 17.5343 29.4646C17.7195 29.6499 17.9707 29.7539 18.2327 29.7539C18.4946 29.7539 18.7459 29.6499 18.9311 29.4646C19.1163 29.2794 19.2204 29.0282 19.2204 28.7662V24.8154H21.1958V28.7662C21.1958 29.0282 21.2998 29.2794 21.4851 29.4646C21.6703 29.6499 21.9215 29.7539 22.1835 29.7539C22.4454 29.7539 22.6966 29.6499 22.8819 29.4646C23.0671 29.2794 23.1712 29.0282 23.1712 28.7662V23.8277C23.1712 23.5658 23.0671 23.3146 22.8819 23.1293C22.6966 22.9441 22.4454 22.84 22.1835 22.84ZM29.9369 19.877C29.8443 19.9823 29.7304 20.0668 29.6027 20.1247C29.4749 20.1826 29.3363 20.2126 29.1961 20.2128C28.956 20.2124 28.7243 20.1246 28.5442 19.9658L20.2081 12.5779L11.8719 19.9263C11.7758 20.0187 11.6619 20.0906 11.5372 20.1378C11.4125 20.185 11.2795 20.2064 11.1463 20.2008C11.0131 20.1952 10.8824 20.1627 10.7621 20.1053C10.6418 20.0478 10.5343 19.9666 10.4462 19.8665C10.3582 19.7664 10.2913 19.6495 10.2496 19.5229C10.2079 19.3962 10.1922 19.2625 10.2036 19.1296C10.215 18.9968 10.2532 18.8676 10.3158 18.7499C10.3785 18.6322 10.4643 18.5284 10.5682 18.4448L19.5562 10.5432C19.7364 10.3849 19.9682 10.2976 20.2081 10.2976C20.448 10.2976 20.6797 10.3849 20.86 10.5432L23.1712 12.5581V10.9877C23.1712 10.7257 23.2752 10.4745 23.4605 10.2893C23.6457 10.1041 23.8969 10 24.1589 10H27.1219C27.3839 10 27.6351 10.1041 27.8204 10.2893C28.0056 10.4745 28.1096 10.7257 28.1096 10.9877V16.6077C28.123 16.7093 28.123 16.8122 28.1096 16.9139L29.8974 18.4942C30.0837 18.6736 30.1922 18.9189 30.1996 19.1775C30.207 19.4361 30.1127 19.6872 29.9369 19.877ZM25.1466 14.2965L26.1342 15.1656V11.9754H25.1466V14.2965Z" fill="#444F85"/>
                    </svg>